<svg width="338" height="65" viewBox="0 0 338 65" fill="none" xmlns="http://www.w3.org/2000/svg">
<g clip-path="url(#clip0_52_47)">
<path d="M1.66984 17.9101L17.7398 1.83008H62.8498V47.1701L46.7098 63.3201H1.58984L1.66984 17.9101Z" stroke="white" stroke-miterlimit="10"/>
<path d="M32.48 1.5H17.74L1.5 17.74V45.4" stroke="white" stroke-width="3" stroke-miterlimit="10"/>
<path d="M31.7598 63.1302H46.4998L62.7398 46.8902V19.2402" stroke="white" stroke-width="3" stroke-miterlimit="10"/>
<path d="M7.3598 20.6401L20.4398 7.56006H57.1498V44.4501L44.0098 57.5901H7.2998L7.3598 20.6401Z" fill="white" fill-opacity="0.1"/>
<path d="M42 23L31 34" stroke="white" stroke-width="2" stroke-linecap="round" stroke-linejoin="round"/>
<path d="M35 43L42 23L22 30L31 34L35 43Z" stroke="white" stroke-width="2" stroke-linecap="round" stroke-linejoin="round"/>
</g>
<g clip-path="url(#clip1_52_47)">
<path d="M198.41 2.125H335.57V46.465L319.46 62.575H91.7002V18.675L107.81 2.125H198.41Z" stroke="white" stroke-miterlimit="10"/>
<path d="M201.54 8.33496H329.16V43.565L316.35 56.365H98.5V21.485L111.3 8.33496H201.54Z" fill="white" fill-opacity="0.1"/>
<path d="M125.07 2.125H108.37L91.7402 18.535V46.755" stroke="white" stroke-width="3" stroke-miterlimit="10"/>
<path d="M302.38 62.5052H319.08L335.71 46.0952V17.8652" stroke="white" stroke-width="3" stroke-miterlimit="10"/>
<path d="M147.48 27.6L149.06 26.02L153.92 26.4L155.24 28.52L154.36 29.46L152.74 27.22L149.06 27.66V31.4L153.42 31.84L155 33.08V37.22L153.18 38.66L148.56 38.28L147.24 36.16L148.12 35.22L149.74 37.46L153.42 37.02V33.28L149.06 32.84L147.48 31.6V27.6ZM157.48 27.6L159 26.08H163.48L165 27.6V38.6H163.74V33.6H158.74V38.6H157.48V27.6ZM163.8 32.34L163.42 27.66L159.62 27.28L158.74 28.16V32.34H163.8ZM166.86 38.6V26.08H167.8L170.3 29.84H171.56L174.06 26.08H175V38.6H173.74V28.28L171.42 31.84H170.42L168.12 28.28V38.6H166.86ZM177.48 38.6V26.08H183.48L185 27.6V32.08L183.48 33.6H178.74V38.6H177.48ZM183.42 32.02V27.66L178.74 27.28V32.4L183.42 32.02ZM187.48 38.6V26.08H188.74V37.34H195V38.6H187.48ZM197.48 38.6V26.08H205V27.34H198.74V31.72H203.12V32.96H198.74V37.34H205V38.6H197.48ZM217.48 38.6V26.08H223.48L225 27.6V30.22L223.48 31.72L225 33.22V37.08L223.48 38.6H217.48ZM223.42 30.78V27.66L218.74 27.28V31.16L223.42 30.78ZM223.86 34.16L222.36 32.34H218.74V37.4L223.42 37.02L223.86 34.16ZM227.48 37.08V26.08H228.68L229.06 37.02H233.42L233.8 26.08H235V37.08L233.48 38.6H229L227.48 37.08ZM237.48 27.34V26.08H245V27.34H241.86V38.6H240.62V27.34H237.48ZM247.48 27.34V26.08H255V27.34H251.86V38.6H250.62V27.34H247.48ZM257.48 27.6L259 26.08H263.48L265 27.6V37.08L263.48 38.6H259L257.48 37.08V27.6ZM263.42 37.02V27.66L259.36 27.28L258.68 29.02L259.06 37.02H263.42ZM267.48 38.6V26.08H268.74V28.96L273.74 33.84V26.08H275V38.6H273.74V35.72L268.74 30.84V38.6H267.48Z" fill="white"/>
</g>
<defs>
<clipPath id="clip0_52_47">
<rect width="64.24" height="64.63" fill="white"/>
</clipPath>
<clipPath id="clip1_52_47">
<rect width="246.97" height="63.38" fill="white" transform="translate(90.2402 0.625)"/>
</clipPath>
</defs>
</svg>
