<svg width="275" height="302" viewBox="0 0 275 302" fill="none" xmlns="http://www.w3.org/2000/svg">
<path d="M22.9917 28.1817C9.28492 29.8431 -0.479774 42.3015 1.18166 56.0083L28.2562 279.373C29.9176 293.08 42.376 302.845 56.0828 301.183C69.7896 299.522 79.5543 287.064 77.8929 273.357L53.8266 74.8101L252.373 50.7438C266.08 49.0824 275.845 36.624 274.183 22.9172C272.522 9.21037 260.064 -0.554333 246.357 1.1071L22.9917 28.1817ZM232.578 246.676C243.445 255.194 259.159 253.289 267.676 242.422C276.194 231.555 274.289 215.841 263.422 207.324L232.578 246.676ZM10.578 72.6764L232.578 246.676L263.422 207.324L41.422 33.3236L10.578 72.6764Z" fill="#00FFE6"/>
</svg>
