<svg width="93" height="26" viewBox="0 0 93 26" fill="none" xmlns="http://www.w3.org/2000/svg">
<path fill-rule="evenodd" clip-rule="evenodd" d="M11.7213 6.62222H5.17291V6.62313H2.56636V0.245405H0V8.75379H10.8521V8.75291H11.2018L16.0947 14.3079H19.2167L13.9486 8.24029C15.0146 7.99282 15.8903 7.53595 16.5375 6.88872C17.2037 6.2415 17.5274 5.49909 17.5464 4.43306V4.20463C17.5464 3.65258 17.4512 3.21475 17.2228 2.75789C17.0134 2.28198 16.7088 1.88222 16.29 1.52054C15.8141 1.12078 15.2049 0.797166 14.4625 0.568732C13.7201 0.359335 12.8825 0.245117 11.9307 0.245117H5.17291V2.30102H11.7023C12.6922 2.30102 13.4727 2.47234 14.0247 2.85307C14.5577 3.21475 14.8433 3.65258 14.8433 4.33788V4.56632C14.8433 5.23258 14.5577 5.65138 14.0057 6.0321C13.4536 6.41282 12.6922 6.62222 11.7213 6.62222ZM11.2026 12.3341H0V14.3778H11.2026H12.9887L12.9496 14.3307L11.2026 12.3341Z" fill="white"/>
<path d="M23.8925 12.1657L22.4292 14.3825H34.9772V12.1657H23.8925ZM23.8925 6.14268V8.35949H34.9772V6.14268H23.8925ZM22.4292 0.245117L23.8925 2.50376L34.9772 2.46193V0.245117H22.4292Z" fill="white"/>
<path d="M40.7819 2.46193H49.614L51.5365 0.245117H39.1558L40.7819 2.46193ZM39.1558 14.3825H42.0837V8.63137H50.0788L51.5365 6.35181H39.1558V14.3825Z" fill="white"/>
<path d="M55.719 14.3825H58.6469V0.245117H55.719V14.3825Z" fill="white"/>
<path d="M62.8263 14.3825H65.6914V4.32322L74.8933 14.3825H77.3401V2.46193V0.245117H74.4541V10.0117L65.5241 0.245117H62.8263V14.3825Z" fill="white"/>
<path d="M81.9149 12.1657L80.4517 14.3825H92.9997V12.1657H81.9149ZM81.9149 6.14269V8.3595H92.9997V6.14269H81.9149ZM80.4517 0.245122L81.9149 2.50376L92.9997 2.46193V0.245122H80.4517Z" fill="white"/>
<path fill-rule="evenodd" clip-rule="evenodd" d="M74.4603 25.5028C74.7845 25.6666 75.161 25.7503 75.5898 25.7538C76.0151 25.7503 76.3934 25.6666 76.7246 25.5028C77.0488 25.3354 77.305 25.1158 77.4933 24.8439C77.5771 24.7173 77.6419 24.585 77.6877 24.4469H76.8887C76.8697 24.4863 76.8481 24.5245 76.8239 24.5615C76.7089 24.7498 76.545 24.8997 76.3324 25.0112C76.2278 25.0705 76.1145 25.1141 75.9924 25.142C75.8704 25.1664 75.7397 25.1803 75.6003 25.1838C75.3214 25.1768 75.0773 25.1193 74.8681 25.0112C74.652 24.8962 74.4847 24.7445 74.3661 24.5563C74.3437 24.521 74.3233 24.4845 74.305 24.4469H73.4993C73.5453 24.5874 73.6111 24.7214 73.6968 24.8491C73.8815 25.1245 74.136 25.3424 74.4603 25.5028ZM73.4201 23.976C73.4198 23.9621 73.4196 23.948 73.4196 23.934V23.9235C73.4196 23.5854 73.5137 23.2803 73.702 23.0084C73.8833 22.733 74.1378 22.5134 74.4655 22.3495C74.7932 22.1856 75.1714 22.1002 75.6003 22.0933C76.0325 22.1002 76.4108 22.1839 76.735 22.3443C77.0557 22.5046 77.3085 22.7225 77.4933 22.9979C77.678 23.2768 77.7704 23.5819 77.7704 23.9131V23.9235C77.7704 23.9411 77.7702 23.9586 77.7697 23.976H77.005C77.0059 23.9621 77.0065 23.948 77.0069 23.934V23.9235C77 23.69 76.939 23.479 76.8239 23.2908C76.7019 23.1025 76.5363 22.9526 76.3271 22.8411C76.1145 22.7295 75.8687 22.6702 75.5898 22.6633C75.3109 22.6702 75.0669 22.7278 74.8577 22.8358C74.645 22.9474 74.4812 23.0973 74.3661 23.2855C74.2511 23.4668 74.1901 23.676 74.1831 23.9131V23.9235C74.1836 23.9412 74.1844 23.9587 74.1855 23.976H73.4201ZM64.7136 23.976H63.9815V22.2188H64.7136V23.976ZM63.9815 24.4469H64.7136V25.7538H63.9815V24.4469ZM55.2751 23.976V23.9758C55.2681 23.6377 55.174 23.3378 54.9927 23.0764C54.8044 22.8149 54.5464 22.6057 54.2187 22.4489C53.8806 22.2955 53.4953 22.2188 53.0631 22.2188H51.5099V23.976H52.2421V22.7835H53.0631C53.4988 22.787 53.8492 22.9003 54.1141 23.1234C54.3662 23.341 54.4968 23.6251 54.5061 23.976H55.2751ZM54.4161 24.4469H55.2057C55.1587 24.6015 55.0876 24.7478 54.9927 24.8857C54.8044 25.1507 54.5464 25.3616 54.2187 25.5185C53.8841 25.6719 53.4988 25.7503 53.0631 25.7538H51.5099V24.4469H52.2421V25.189H53.0631C53.4988 25.1855 53.8492 25.0722 54.1141 24.8491C54.2502 24.7355 54.3508 24.6014 54.4161 24.4469ZM42.8038 23.976V22.1612H42.0717V23.976H42.8038ZM42.0508 24.4469H42.7844C42.7323 24.8396 42.5767 25.1428 42.3175 25.3564C42.0003 25.6213 41.5662 25.7538 41.0154 25.7538C40.4681 25.7538 40.0375 25.6231 39.7238 25.3616C39.4629 25.1471 39.308 24.8422 39.2593 24.4469H39.999C40.0375 24.646 40.1218 24.8045 40.2519 24.9223C40.4437 25.0966 40.7017 25.1838 41.0259 25.1838C41.3536 25.1838 41.6098 25.1001 41.7946 24.9328C41.9286 24.8139 42.014 24.652 42.0508 24.4469ZM39.9748 23.976V22.1612H39.2427V23.976H39.9748ZM29.2144 23.976V22.794H30.5374V22.2188H27.1592V22.794H28.477V23.976H29.2144ZM17.9956 23.976C17.9955 23.9759 17.9954 23.9759 17.9953 23.9758C17.8663 23.8887 17.7217 23.8207 17.5613 23.7719C17.4044 23.7196 17.2545 23.6795 17.1116 23.6516C17.0593 23.6411 16.9965 23.6289 16.9233 23.615C16.8536 23.5976 16.7804 23.5801 16.7037 23.5627C16.6305 23.5418 16.559 23.5191 16.4893 23.4947C16.423 23.4703 16.3673 23.4442 16.3219 23.4163C16.2522 23.3744 16.2017 23.3309 16.1703 23.2855C16.1389 23.2402 16.1232 23.1775 16.1232 23.0973C16.1232 23.0276 16.1389 22.9683 16.1703 22.9195C16.2051 22.8707 16.2505 22.8271 16.3062 22.7888C16.376 22.74 16.4562 22.7086 16.5468 22.6946C16.6374 22.6772 16.7228 22.6667 16.803 22.6633C17.0052 22.6633 17.2022 22.6981 17.3939 22.7678C17.5857 22.8341 17.7652 22.9212 17.9326 23.0293L18.3248 22.5587C18.1156 22.4123 17.8872 22.3024 17.6397 22.2292C17.5003 22.1874 17.3486 22.156 17.1848 22.1351C17.0209 22.1142 16.8571 22.1089 16.6932 22.1194C16.5294 22.1299 16.369 22.1578 16.2121 22.2031C16.0552 22.2484 15.9158 22.3146 15.7938 22.4018C15.6683 22.4924 15.5707 22.5918 15.5009 22.6999C15.4312 22.8045 15.3963 22.9369 15.3963 23.0973C15.3963 23.3204 15.4539 23.4982 15.5689 23.6307C15.684 23.7632 15.8269 23.8695 15.9977 23.9497C16.0182 23.9587 16.0388 23.9674 16.0595 23.976H17.9956ZM17.5464 24.4469H18.4008C18.4338 24.5373 18.4503 24.6383 18.4503 24.7498C18.4503 24.9171 18.4154 25.0565 18.3457 25.1681C18.276 25.2797 18.1731 25.3825 18.0372 25.4766C17.9047 25.5673 17.753 25.6353 17.5822 25.6806C17.4149 25.7224 17.2406 25.7468 17.0593 25.7538C16.8815 25.7573 16.7037 25.7468 16.5259 25.7224C16.3516 25.698 16.1912 25.6614 16.0448 25.6126C15.8984 25.5638 15.7554 25.5045 15.616 25.4348C15.48 25.3616 15.351 25.2797 15.229 25.189L15.6683 24.7445C15.86 24.891 16.064 25.0043 16.2801 25.0844C16.3638 25.1158 16.4596 25.1437 16.5677 25.1681C16.6793 25.189 16.7926 25.2012 16.9076 25.2047C17.0227 25.2082 17.1325 25.2012 17.2371 25.1838C17.3451 25.1629 17.4393 25.128 17.5195 25.0792C17.5822 25.0409 17.631 24.9955 17.6659 24.9432C17.7007 24.891 17.7182 24.8265 17.7182 24.7498C17.7182 24.6176 17.6609 24.5166 17.5464 24.4469ZM28.477 24.4469H29.2144V25.7538H28.477V24.4469Z" fill="white"/>
</svg>
