<svg width="1100" height="834" viewBox="0 0 1100 834" fill="none" xmlns="http://www.w3.org/2000/svg">
<path d="M458.592 435.735L411.073 212.173L193.651 141.564L23.7615 294.498L71.2812 518.06L288.687 588.672L458.592 435.735Z" stroke="#D8D8D8" stroke-miterlimit="10"/>
<path d="M478.09 452.64L429.78 225.359L201.806 148.816L29.0934 304.302L84.3376 536.334L305.361 608.129L478.09 452.64Z" stroke="#D5D6D8" stroke-miterlimit="10"/>
<path d="M497.584 469.528L448.487 238.545L209.965 156.083L34.4287 314.121L97.3907 554.592L322.047 627.567L497.584 469.528Z" stroke="#CFD0D1" stroke-miterlimit="10"/>
<path d="M517.082 486.433L467.191 251.714L218.124 163.35L39.761 323.924L110.464 572.862L338.718 647.007L517.082 486.433Z" stroke="#C9CACB" stroke-miterlimit="10"/>
<path d="M536.595 503.335L485.914 264.897L226.283 170.618L45.0929 333.728L123.52 591.136L355.389 666.448L536.595 503.335Z" stroke="#C3C4C5" stroke-miterlimit="10"/>
<path d="M556.089 520.224L504.621 278.083L234.439 177.869L50.4249 343.531L136.573 609.394L372.075 685.885L556.089 520.224Z" stroke="#BDBEBF" stroke-miterlimit="10"/>
<path d="M575.587 537.129L523.324 291.254L242.614 185.134L55.7567 353.335L149.63 627.669L388.746 705.327L575.587 537.129Z" stroke="#B7B8B9" stroke-miterlimit="10"/>
<path d="M595.081 554.018L542.032 304.44L250.773 192.401L61.0925 363.155L162.699 645.923L405.417 724.767L595.081 554.018Z" stroke="#B2B2B3" stroke-miterlimit="10"/>
<path d="M614.595 570.919L560.755 317.623L258.932 199.669L66.4243 372.958L175.756 664.197L422.087 744.208L614.595 570.919Z" stroke="#ACABAD" stroke-miterlimit="10"/>
<path d="M634.092 587.824L579.458 330.793L267.087 206.921L71.7562 382.762L188.812 682.471L438.774 763.646L634.092 587.824Z" stroke="#A6A5A7" stroke-miterlimit="10"/>
<path d="M653.586 604.714L598.165 343.98L275.246 214.189L77.0881 392.566L201.865 700.73L455.444 783.087L653.586 604.714Z" stroke="#A09FA0" stroke-miterlimit="10"/>
<path d="M673.1 621.615L616.888 357.162L283.405 221.457L82.4234 402.386L214.938 719.001L472.115 802.528L673.1 621.615Z" stroke="#9A999A" stroke-miterlimit="10"/>
<path d="M692.594 638.504L635.592 370.332L291.564 228.724L87.7558 412.189L227.992 737.258L488.789 821.985L692.594 638.504Z" stroke="#949394" stroke-miterlimit="10"/>
<path d="M712.091 655.409L654.299 383.518L299.72 235.976L93.0876 421.992L241.048 755.532L505.476 841.422L712.091 655.409Z" stroke="#8E8D8E" stroke-miterlimit="10"/>
<path d="M731.589 672.314L673.006 396.704L307.879 243.243L98.4195 431.795L254.12 773.803L522.146 860.863L731.589 672.314Z" stroke="#888788" stroke-miterlimit="10"/>
<path d="M751.099 689.199L691.726 409.871L316.037 250.511L103.768 441.596L267.174 792.061L538.816 880.304L751.099 689.199Z" stroke="#828182" stroke-miterlimit="10"/>
<path d="M770.597 706.105L710.433 423.058L324.197 257.779L109.103 451.416L280.23 810.335L555.487 899.745L770.597 706.105Z" stroke="#7C7B7C" stroke-miterlimit="10"/>
<path d="M790.094 723.01L729.14 436.244L332.352 265.03L114.435 461.219L293.287 828.609L572.174 919.183L790.094 723.01Z" stroke="#767476" stroke-miterlimit="10"/>
<path d="M809.588 739.898L747.844 449.414L340.511 272.298L119.767 471.023L306.356 846.863L588.844 938.623L809.588 739.898Z" stroke="#706E70" stroke-miterlimit="10"/>
<path d="M829.102 756.8L766.567 462.597L348.67 279.565L125.099 480.826L319.413 865.138L605.515 958.064L829.102 756.8Z" stroke="#6A6869" stroke-miterlimit="10"/>
<path d="M848.596 773.689L785.274 475.783L356.829 286.834L130.431 490.63L332.466 883.396L622.202 977.502L848.596 773.689Z" stroke="#646263" stroke-miterlimit="10"/>
<path d="M868.094 790.594L803.978 488.953L364.985 294.085L135.767 500.45L345.523 901.67L638.872 996.943L868.094 790.594Z" stroke="#5E5C5D" stroke-miterlimit="10"/>
<path d="M887.607 807.496L822.701 502.136L373.143 301.353L141.098 510.254L358.595 919.941L655.543 1016.38L887.607 807.496Z" stroke="#585657" stroke-miterlimit="10"/>
<path d="M907.101 824.384L841.408 515.322L381.302 308.62L146.43 520.057L371.648 938.199L672.217 1035.84L907.101 824.384Z" stroke="#535051" stroke-miterlimit="10"/>
<path d="M926.599 841.289L860.112 528.492L389.461 315.887L151.762 529.86L384.705 956.472L688.903 1055.28L926.599 841.289Z" stroke="#4D4A4B" stroke-miterlimit="10"/>
<path d="M946.096 858.194L878.819 541.678L397.633 323.136L157.098 539.68L397.761 974.746L705.574 1074.72L946.096 858.194Z" stroke="#474445" stroke-miterlimit="10"/>
<path d="M965.607 875.08L897.542 554.861L405.792 330.403L162.43 549.483L410.831 993.001L722.245 1094.16L965.607 875.08Z" stroke="#413E3F" stroke-miterlimit="10"/>
<path d="M985.104 891.985L916.246 568.032L413.951 337.672L167.762 559.287L423.887 1011.28L738.915 1113.6L985.104 891.985Z" stroke="#3B3738" stroke-miterlimit="10"/>
<path d="M1004.6 908.874L934.953 581.218L422.106 344.923L173.094 569.091L436.94 1029.53L755.602 1133.04L1004.6 908.874Z" stroke="#353132" stroke-miterlimit="10"/>
<path d="M1024.1 925.779L953.66 594.404L430.265 352.19L178.426 578.894L449.997 1047.81L772.272 1152.48L1024.1 925.779Z" stroke="#2F2B2C" stroke-miterlimit="10"/>
<path d="M1043.61 942.68L972.38 607.57L438.424 359.458L183.761 588.714L463.07 1066.08L788.943 1171.92L1043.61 942.68Z" stroke="#292526" stroke-miterlimit="10"/>
<path d="M1063.1 959.57L991.087 620.757L446.583 366.726L189.093 598.518L476.123 1084.34L805.614 1191.36L1063.1 959.57Z" stroke="#231F20" stroke-miterlimit="10"/>
</svg>
