<svg width="786" height="115" viewBox="0 0 786 115" fill="none" xmlns="http://www.w3.org/2000/svg">
  <g opacity="0.25">
    <mask id="path-1-outside-1_46_329" maskUnits="userSpaceOnUse" x="-2.00547" y="-0.00710063"
      width="153.397" height="112.543" fill="black">
      <rect fill="white" x="-2.00547" y="-0.00710063" width="153.397" height="112.543" />
      <path fill-rule="evenodd" clip-rule="evenodd"
        d="M0.385743 1.99989L20.0889 2.06997L19.9148 51.0348L39.9323 51.106L39.9323 51.1016L90.2077 51.2804C97.6613 51.3069 103.513 49.7201 107.762 46.8122C112.01 43.9042 114.214 40.6968 114.232 35.5815L114.239 33.8277C114.257 28.5664 112.077 25.1971 107.995 22.4058C103.767 19.4677 97.7793 18.131 90.1795 18.104L40.0503 17.9257L40.1065 2.1416L91.9894 2.32613C99.2969 2.35212 105.724 3.25189 111.418 4.8798C117.112 6.65387 121.78 9.15503 125.423 12.2372C128.628 15.0254 130.956 18.1029 132.55 21.7623C134.292 25.2761 135.01 28.6402 134.995 32.8785L134.989 34.6323C134.814 42.8161 132.309 48.5071 127.176 53.458C122.189 58.4094 115.454 61.8931 107.263 63.7639L147.543 110.492L123.574 110.406L86.1608 67.6245L83.4697 67.6149L83.4697 67.6191L0.153412 67.3227L0.385743 1.99989ZM86.063 95.1147L0.0556533 94.8088L-0.000152457 110.499L86.0072 110.805L99.7203 110.854L99.4213 110.491L86.063 95.1147Z" />
    </mask>
    <path
      d="M20.0889 2.07008L21.4121 2.07478L21.4168 0.751621L20.0936 0.746915L20.0889 2.07008ZM0.385742 2L0.390448 0.676838L-0.932714 0.672132L-0.93742 1.99529L0.385742 2ZM19.9148 51.0349L18.5916 51.0302L18.5869 52.3533L19.9101 52.358L19.9148 51.0349ZM39.9323 51.1061L39.9276 52.4292L41.2508 52.4339L41.2555 51.1108L39.9323 51.1061ZM39.9323 51.1017L39.937 49.7785L38.6139 49.7738L38.6092 51.097L39.9323 51.1017ZM90.2077 51.2805L90.2124 49.9573L90.2077 51.2805ZM107.762 46.8123L107.014 45.7203L107.014 45.7203L107.762 46.8123ZM107.995 22.4059L107.24 23.4925L107.248 23.4981L107.995 22.4059ZM90.1795 18.1041L90.1842 16.781L90.1795 18.1041ZM40.0503 17.9258L38.7272 17.9211L38.7224 19.2443L40.0456 19.249L40.0503 17.9258ZM40.1065 2.1417L40.1112 0.818541L38.788 0.813835L38.7833 2.137L40.1065 2.1417ZM111.418 4.87991L111.812 3.61664L111.797 3.612L111.782 3.60771L111.418 4.87991ZM125.423 12.2373L126.291 11.2389L126.284 11.233L126.277 11.2271L125.423 12.2373ZM132.55 21.7624L131.337 22.291L131.35 22.3208L131.365 22.35L132.55 21.7624ZM134.989 34.6324L136.312 34.6607L136.312 34.6489L136.312 34.6371L134.989 34.6324ZM127.176 53.4581L126.258 52.5058L126.251 52.5124L126.244 52.5192L127.176 53.4581ZM107.263 63.764L106.968 62.4741L104.826 62.9634L106.261 64.6279L107.263 63.764ZM147.543 110.492L147.538 111.815L150.439 111.825L148.545 109.628L147.543 110.492ZM123.574 110.407L122.578 111.278L122.972 111.728L123.57 111.73L123.574 110.407ZM86.1608 67.6246L87.1569 66.7536L86.7633 66.3036L86.1656 66.3014L86.1608 67.6246ZM83.4697 67.615L83.4744 66.2919L82.1513 66.2872L82.1465 67.6103L83.4697 67.615ZM83.4697 67.6192L83.465 68.9423L84.7882 68.9471L84.7929 67.6239L83.4697 67.6192ZM0.153411 67.3229L-1.16975 67.3181L-1.17446 68.6413L0.148705 68.646L0.153411 67.3229ZM0.055653 94.8089L0.060359 93.4857L-1.2628 93.481L-1.26751 94.8042L0.055653 94.8089ZM86.063 95.1148L87.0619 94.247L86.6681 93.7938L86.0677 93.7916L86.063 95.1148ZM-0.000152837 110.499L-1.32332 110.495L-1.32802 111.818L-0.00485888 111.823L-0.000152837 110.499ZM86.0072 110.805L86.0119 109.482L86.0072 110.805ZM99.7203 110.854L99.7156 112.177L102.535 112.187L100.741 110.012L99.7203 110.854ZM99.4213 110.491L100.442 109.65L100.431 109.637L100.42 109.624L99.4213 110.491ZM20.0936 0.746915L0.390448 0.676838L0.381036 3.32316L20.0842 3.39324L20.0936 0.746915ZM21.2379 51.0396L21.4121 2.07478L18.7658 2.06537L18.5916 51.0302L21.2379 51.0396ZM39.937 49.7829L19.9195 49.7117L19.9101 52.358L39.9276 52.4292L39.937 49.7829ZM38.6092 51.097L38.6091 51.1014L41.2555 51.1108L41.2555 51.1064L38.6092 51.097ZM90.2124 49.9573L39.937 49.7785L39.9276 52.4249L90.203 52.6037L90.2124 49.9573ZM107.014 45.7203C103.051 48.433 97.4871 49.9832 90.2124 49.9573L90.203 52.6037C97.8354 52.6308 103.975 51.0073 108.509 47.9042L107.014 45.7203ZM112.909 35.5769C112.901 37.9324 112.393 39.772 111.449 41.3433C110.496 42.9302 109.045 44.3306 107.014 45.7203L108.509 47.9042C110.727 46.386 112.502 44.7287 113.718 42.7061C114.942 40.6678 115.546 38.346 115.555 35.5863L112.909 35.5769ZM112.915 33.8231L112.909 35.5769L115.555 35.5863L115.562 33.8326L112.915 33.8231ZM107.248 23.4981C109.176 24.8167 110.579 26.2194 111.505 27.8454C112.426 29.4628 112.924 31.3857 112.915 33.8231L115.562 33.8326C115.572 31.0087 114.989 28.6162 113.804 26.5358C112.624 24.4641 110.895 22.7864 108.741 21.3136L107.248 23.4981ZM90.1748 19.4273C97.6564 19.4539 103.329 20.7753 107.24 23.4924L108.75 21.3193C104.204 18.1603 97.9021 16.8084 90.1842 16.781L90.1748 19.4273ZM40.0456 19.249L90.1748 19.4273L90.1842 16.781L40.055 16.6027L40.0456 19.249ZM38.7833 2.137L38.7272 17.9211L41.3735 17.9305L41.4296 2.14641L38.7833 2.137ZM91.9941 1.00307L40.1112 0.818541L40.1018 3.46487L91.9847 3.6494L91.9941 1.00307ZM111.782 3.60771C105.958 1.9425 99.4079 1.02944 91.9941 1.00307L91.9847 3.6494C99.1858 3.67501 105.491 4.56149 111.055 6.15211L111.782 3.60771ZM126.277 11.2271C122.478 8.01238 117.645 5.43427 111.812 3.61664L111.025 6.14317C116.579 7.87367 121.082 10.2979 124.568 13.2474L126.277 11.2271ZM133.763 21.2339C132.083 17.3768 129.63 14.1432 126.291 11.2389L124.554 13.2356C127.626 15.9079 129.829 18.8292 131.337 22.291L133.763 21.2339ZM136.318 32.8833C136.334 28.4641 135.579 24.8936 133.736 21.1749L131.365 22.35C133.005 25.659 133.687 28.8165 133.672 32.8739L136.318 32.8833ZM136.312 34.6371L136.318 32.8833L133.672 32.8739L133.666 34.6277L136.312 34.6371ZM128.095 54.4105C133.498 49.1987 136.13 43.1666 136.312 34.6607L133.666 34.6041C133.498 42.4659 131.12 47.8158 126.258 52.5058L128.095 54.4105ZM107.558 65.054C115.942 63.139 122.914 59.5545 128.108 54.3971L126.244 52.5192C121.465 57.2645 114.966 60.6473 106.968 62.4741L107.558 65.054ZM148.545 109.628L108.265 62.9001L106.261 64.6279L146.541 111.356L148.545 109.628ZM123.57 111.73L147.538 111.815L147.548 109.169L123.579 109.083L123.57 111.73ZM85.1648 68.4957L122.578 111.278L124.57 109.536L87.1569 66.7536L85.1648 68.4957ZM83.465 68.9382L86.1561 68.9478L86.1656 66.3014L83.4744 66.2919L83.465 68.9382ZM84.7929 67.6239L84.7929 67.6197L82.1465 67.6103L82.1465 67.6145L84.7929 67.6239ZM0.148705 68.646L83.465 68.9423L83.4744 66.296L0.158117 65.9997L0.148705 68.646ZM-0.93742 1.99529L-1.16975 67.3181L1.47657 67.3276L1.7089 2.00471L-0.93742 1.99529ZM0.0509469 96.1321L86.0583 96.438L86.0677 93.7916L0.060359 93.4857L0.0509469 96.1321ZM1.32301 110.504L1.37882 94.8136L-1.26751 94.8042L-1.32332 110.495L1.32301 110.504ZM86.0119 109.482L0.00455321 109.176L-0.00485888 111.823L86.0025 112.128L86.0119 109.482ZM99.725 109.531L86.0119 109.482L86.0025 112.128L99.7156 112.177L99.725 109.531ZM98.4004 111.333L98.6995 111.696L100.741 110.012L100.442 109.65L98.4004 111.333ZM85.0641 95.9826L98.4224 111.359L100.42 109.624L87.0619 94.247L85.0641 95.9826Z"
      fill="#00FF6A" fill-opacity="0.5" mask="url(#path-1-outside-1_46_329)" />
    <path
      d="M281.948 111.875L282.61 111.878L282.612 111.216L282.675 93.464L282.678 92.8024L282.016 92.8L180.333 92.4384L180.438 63.0427L273.013 63.372L273.675 63.3744L273.677 62.7128L273.74 44.9607L273.742 44.2991L273.081 44.2968L180.505 43.9675L180.587 21.0552L282.27 21.4169L282.931 21.4193L282.934 20.7577L282.996 3.15997L282.999 2.49839L282.337 2.49603L161.16 2.06505L160.498 2.0627L160.496 2.72428L160.112 110.78L160.109 111.442L160.771 111.444L281.948 111.875ZM317.599 111.34L317.764 64.7661L409.105 65.091L409.767 65.0933L409.769 64.4318L409.831 46.8341L409.834 46.1725L409.172 46.1701L317.832 45.8453L317.918 21.5437L419.756 21.9059L420.417 21.9082L420.419 21.2467L420.482 3.64896L420.484 2.98738L419.823 2.98502L298.491 2.55349L297.83 2.55114L297.827 3.21272L297.443 111.269L297.441 111.93L298.102 111.933L316.935 112L317.596 112.002L317.599 111.34ZM503.727 93.5886L477.066 93.4938L477.32 22.1106L503.981 22.2055L504.643 22.2078L504.645 21.5462L504.708 3.94852L504.71 3.28694L504.049 3.28458L430.571 3.02325L429.909 3.0209L429.907 3.68248L429.844 21.2802L429.842 21.9418L430.503 21.9441L457.164 22.0389L456.911 93.4221L430.249 93.3273L429.588 93.3249L429.585 93.9865L429.522 111.739L429.52 112.4L430.181 112.402L503.66 112.664L504.321 112.666L504.324 112.005L504.387 94.2525L504.389 93.5909L503.727 93.5886ZM519.193 112.057L519.191 112.719L519.852 112.721L538.685 112.788L539.347 112.791L539.349 112.129L539.642 29.7747L620.49 112.881L620.684 113.08L620.962 113.081L641.03 113.152L641.691 113.155L641.693 112.493L642.078 4.28273L642.081 3.62115L641.419 3.6188L622.586 3.55182L621.925 3.54946L621.923 4.21105L621.63 86.4111L540.936 3.46L540.742 3.26072L540.464 3.25974L520.242 3.18781L519.58 3.18546L519.578 3.84704L519.193 112.057ZM783.788 113.66L784.449 113.662L784.452 113.001L784.515 95.2488L784.517 94.5873L783.856 94.5849L682.173 94.2233L682.277 64.8276L774.853 65.1569L775.514 65.1592L775.516 64.4976L775.58 46.7456L775.582 46.084L774.92 46.0816L682.345 45.7524L682.426 22.8401L784.109 23.2018L784.771 23.2041L784.773 22.5425L784.836 4.94484L784.838 4.28326L784.177 4.2809L663 3.84992L662.338 3.84757L662.336 4.50915L661.951 112.565L661.949 113.227L662.611 113.229L783.788 113.66Z"
      stroke="#00FF6A" stroke-opacity="0.5" stroke-width="1.32317" />
  </g>
</svg>